# 3ds Max Wavefront OBJ Exporter v0.97b - (c)2007 guruware
# File Created: 17.09.2019 18:22:18

mtllib flash_thund.mtl

#
# object xxx001
#

v  128.1363 21.6827 448.9185
v  40.4999 28.1476 404.4185
v  103.7130 198.3920 448.9185
v  -92.4148 -22.7182 448.9185
v  -9.6212 -29.3213 404.4185
v  -69.9079 -198.3920 448.9185
v  40.4999 28.1476 493.4185
v  -9.6212 -29.3213 493.4185
# 8 vertices

vn 0.9695 0.2449 0.0000
vn 0.2411 0.2112 -0.9472
vn 0.2411 0.2112 0.9472
vn 0.2411 0.2112 -0.9472
vn 0.4621 0.8868 0.0000
vn 0.2411 0.2112 0.9472
vn -0.9696 -0.2448 -0.0000
vn -0.2561 -0.2009 -0.9455
vn -0.2561 -0.2009 0.9455
vn -0.2561 -0.2009 -0.9455
vn -0.4567 -0.8896 -0.0000
vn -0.2561 -0.2009 0.9455
vn -0.2561 -0.2009 -0.9455
vn -0.9696 -0.2448 -0.0000
vn 0.4621 0.8868 0.0000
vn 0.2411 0.2112 -0.9472
vn -0.2561 -0.2009 0.9455
vn 0.2411 0.2112 0.9472
vn 0.4621 0.8868 0.0000
vn -0.9696 -0.2448 -0.0000
vn -0.2561 -0.2009 0.9455
vn -0.4567 -0.8896 -0.0000
vn 0.9695 0.2449 0.0000
vn 0.2411 0.2112 0.9472
vn 0.2411 0.2112 -0.9472
vn 0.9695 0.2449 0.0000
vn -0.4567 -0.8896 -0.0000
vn -0.2561 -0.2009 -0.9455
# 28 vertex normals

o xxx001
g xxx001
usemtl wire_028149177
s 4
f 1//1 2//2 7//3 
s 2
f 2//4 3//5 7//6 
f 4//7 5//8 8//9 
s 4
f 5//10 6//11 8//12 
s off
f 5//13 4//14 3//15 2//16 
f 8//17 7//18 3//19 4//20 
f 8//21 6//22 1//23 7//24 
f 2//25 1//26 6//27 5//28 
# 4 polygons - 4 triangles

