{
  "accessors": [
    {
      "bufferView": 3,
      "componentType": 5126,
      "count": 827,
      "max": [
        264.47900390625,
        71.903770446777344,
        513.19610595703125
      ],
      "min": [
        -264.47900390625,
        -81.106826782226562,
        24.457189559936523
      ],
      "type": "VEC3"
    },
    {
      "bufferView": 3,
      "byteOffset": 9924,
      "componentType": 5126,
      "count": 827,
      "max": [
        0.99947619438171387,
        0.99734097719192505,
        0.96779662370681763
      ],
      "min": [
        -0.99917280673980713,
        -0.99982917308807373,
        -0.9999433159828186
      ],
      "type": "VEC3"
    },
    {
      "bufferView": 4,
      "componentType": 5126,
      "count": 827,
      "max": [
        0.99998372793197632,
        0.99999880790710449,
        0.89501291513442993,
        1
      ],
      "min": [
        -0.99998372793197632,
        -0.99998462200164795,
        -0.99991482496261597,
        -1
      ],
      "type": "VEC4"
    },
    {
      "bufferView": 2,
      "componentType": 5126,
      "count": 827,
      "max": [
        0.99557602405548096,
        0
      ],
      "min": [
        0.0078119030222296715,
        -0.61571300029754639
      ],
      "type": "VEC2"
    },
    {
      "bufferView": 1,
      "componentType": 5125,
      "count": 3474,
      "max": [
        826
      ],
      "min": [
        0
      ],
      "type": "SCALAR"
    },
    {
      "bufferView": 3,
      "byteOffset": 19848,
      "componentType": 5126,
      "count": 1366,
      "max": [
        201.94900512695312,
        89.466728210449219,
        584.47802734375
      ],
      "min": [
        -201.94900512695312,
        -127.82700347900391,
        0.7494056224822998
      ],
      "type": "VEC3"
    },
    {
      "bufferView": 3,
      "byteOffset": 36240,
      "componentType": 5126,
      "count": 1366,
      "max": [
        0.99974930286407471,
        0.99999189376831055,
        0.99999821186065674
      ],
      "min": [
        -0.99974679946899414,
        -0.9999803900718689,
        -0.99999850988388062
      ],
      "type": "VEC3"
    },
    {
      "bufferView": 4,
      "byteOffset": 13232,
      "componentType": 5126,
      "count": 1366,
      "max": [
        0.99992150068283081,
        0.99997878074645996,
        0.99793946743011475,
        1
      ],
      "min": [
        -0.99985414743423462,
        -0.99999529123306274,
        -0.99784702062606812,
        -1
      ],
      "type": "VEC4"
    },
    {
      "bufferView": 2,
      "byteOffset": 6616,
      "componentType": 5126,
      "count": 1366,
      "max": [
        0.99411898851394653,
        0
      ],
      "min": [
        0.0033809540327638388,
        -0.9921879768371582
      ],
      "type": "VEC2"
    },
    {
      "bufferView": 2,
      "byteOffset": 17544,
      "componentType": 5126,
      "count": 1366,
      "max": [
        0.99411898851394653,
        0
      ],
      "min": [
        0.0033809540327638388,
        -0.9921879768371582
      ],
      "type": "VEC2"
    },
    {
      "bufferView": 1,
      "byteOffset": 13896,
      "componentType": 5125,
      "count": 4296,
      "max": [
        1365
      ],
      "min": [
        0
      ],
      "type": "SCALAR"
    },
    {
      "bufferView": 5,
      "componentType": 5126,
      "count": 30,
      "max": [
        1,
        0.99973487854003906,
        0.97104430198669434,
        0,
        0.99976527690887451,
        1,
        1,
        0,
        0.99650472402572632,
        1,
        1,
        0,
        365.70071411132812,
        197.37710571289062,
        246.00030517578125,
        1
      ],
      "min": [
        -1,
        -0.99976217746734619,
        -0.97083967924118042,
        0,
        -0.99973851442337036,
        -1,
        -0.99999850988388062,
        0,
        -0.99655330181121826,
        -0.99999797344207764,
        -1,
        0,
        -365.68368530273438,
        -354.41659545898438,
        -387.22509765625,
        1
      ],
      "type": "MAT4"
    },
    {
      "bufferView": 0,
      "componentType": 5123,
      "count": 827,
      "max": [
        28,
        20,
        7,
        7
      ],
      "min": [
        3,
        3,
        7,
        7
      ],
      "type": "VEC4"
    },
    {
      "bufferView": 4,
      "byteOffset": 35088,
      "componentType": 5126,
      "count": 827,
      "max": [
        1,
        0.47529599070549011,
        0,
        0
      ],
      "min": [
        0.5247039794921875,
        0,
        0,
        0
      ],
      "type": "VEC4"
    },
    {
      "bufferView": 0,
      "byteOffset": 6616,
      "componentType": 5123,
      "count": 1366,
      "max": [
        29,
        28,
        28,
        18
      ],
      "min": [
        3,
        3,
        18,
        18
      ],
      "type": "VEC4"
    },
    {
      "bufferView": 4,
      "byteOffset": 48320,
      "componentType": 5126,
      "count": 1366,
      "max": [
        1,
        0.5,
        0.25,
        0
      ],
      "min": [
        0.37516900897026062,
        0,
        0,
        0
      ],
      "type": "VEC4"
    }
  ],
  "asset": {
    "extras": {
      "author": "Marvelgod (https://sketchfab.com/Marvelgod)",
      "license": "CC-BY-4.0 (http://creativecommons.org/licenses/by/4.0/)",
      "source": "https://sketchfab.com/3d-models/steiner-ff9-33338a64c94d4e6792c6e2d5460c7c4a",
      "title": "Steiner FF9"
    },
    "generator": "Sketchfab-6.34.0",
    "version": "2.0"
  },
  "bufferViews": [
    {
      "buffer": 0,
      "byteLength": 17544,
      "byteOffset": 0,
      "byteStride": 8,
      "name": "shortBufferViews",
      "target": 34962
    },
    {
      "buffer": 0,
      "byteLength": 31080,
      "byteOffset": 17544,
      "name": "floatBufferViews",
      "target": 34963
    },
    {
      "buffer": 0,
      "byteLength": 28472,
      "byteOffset": 48624,
      "byteStride": 8,
      "name": "floatBufferViews",
      "target": 34962
    },
    {
      "buffer": 0,
      "byteLength": 52632,
      "byteOffset": 77096,
      "byteStride": 12,
      "name": "floatBufferViews",
      "target": 34962
    },
    {
      "buffer": 0,
      "byteLength": 70176,
      "byteOffset": 129728,
      "byteStride": 16,
      "name": "floatBufferViews",
      "target": 34962
    },
    {
      "buffer": 0,
      "byteLength": 1920,
      "byteOffset": 199904,
      "byteStride": 64,
      "name": "floatBufferViews"
    }
  ],
  "buffers": [
    {
      "byteLength": 201824,
      "uri": "scene.bin"
    }
  ],
  "images": [
    {
      "uri": "textures/489_0_002_baseColor.png"
    },
    {
      "uri": "textures/489_1_010_baseColor.png"
    }
  ],
  "materials": [
    {
      "alphaMode": "BLEND",
      "doubleSided": true,
      "emissiveFactor": [
        0,
        0,
        0
      ],
      "name": "489_0_002",
      "pbrMetallicRoughness": {
        "baseColorFactor": [
          1,
          1,
          1,
          1
        ],
        "baseColorTexture": {
          "index": 0,
          "texCoord": 0
        },
        "metallicFactor": 0,
        "roughnessFactor": 1
      }
    },
    {
      "alphaCutoff": 1,
      "alphaMode": "MASK",
      "doubleSided": true,
      "emissiveFactor": [
        0,
        0,
        0
      ],
      "name": "489_1_010",
      "pbrMetallicRoughness": {
        "baseColorFactor": [
          1,
          1,
          1,
          1
        ],
        "baseColorTexture": {
          "index": 1,
          "texCoord": 0
        },
        "metallicFactor": 0,
        "roughnessFactor": 1
      }
    }
  ],
  "meshes": [
    {
      "name": "_489_0_002-material",
      "primitives": [
        {
          "attributes": {
            "JOINTS_0": 12,
            "NORMAL": 1,
            "POSITION": 0,
            "TANGENT": 2,
            "TEXCOORD_0": 3,
            "TEXCOORD_1": 3,
            "WEIGHTS_0": 13
          },
          "indices": 4,
          "material": 0,
          "mode": 4
        }
      ]
    },
    {
      "name": "_489_1_010-material",
      "primitives": [
        {
          "attributes": {
            "JOINTS_0": 14,
            "NORMAL": 6,
            "POSITION": 5,
            "TANGENT": 7,
            "TEXCOORD_0": 8,
            "TEXCOORD_1": 9,
            "WEIGHTS_0": 15
          },
          "indices": 10,
          "material": 1,
          "mode": 4
        }
      ]
    }
  ],
  "nodes": [
    {
      "children": [
        1
      ],
      "name": "RootNode (gltf orientation matrix)",
      "rotation": [
        -0.70710678118654746,
        -0,
        -0,
        0.70710678118654757
      ]
    },
    {
      "children": [
        2
      ],
      "name": "RootNode (model correction matrix)"
    },
    {
      "children": [
        3
      ],
      "name": "Collada visual scene group"
    },
    {
      "children": [
        4
      ],
      "name": "Armature"
    },
    {
      "children": [
        5,
        35,
        36
      ],
      "name": ""
    },
    {
      "children": [
        6
      ],
      "name": "_rootJoint"
    },
    {
      "children": [
        7
      ],
      "name": "_489",
      "rotation": [
        -5.3385154075158425e-08,
        0.70710670948028564,
        0.7071068286895752,
        -5.3385143417017389e-08
      ],
      "scale": [
        1,
        0.99999994039535522,
        1
      ],
      "translation": [
        0,
        0,
        0
      ]
    },
    {
      "children": [
        8,
        26
      ],
      "name": "bone000",
      "rotation": [
        -6.6224227490696563e-11,
        0.99999964237213135,
        0.00087716733105480671,
        7.5498029161735758e-08
      ],
      "scale": [
        1,
        0.99999994039535522,
        1
      ],
      "translation": [
        0,
        246.00019836425781,
        0
      ]
    },
    {
      "children": [
        9,
        17,
        24
      ],
      "name": "bone010",
      "rotation": [
        -0.7064862847328186,
        5.0242746059772376e-15,
        5.0242750294937112e-15,
        0.70772677659988403
      ],
      "scale": [
        1,
        0.99999988079071045,
        1.0000001192092896
      ],
      "translation": [
        0,
        0.00016784699982963502,
        -8.7112202891148627e-05
      ]
    },
    {
      "children": [
        10,
        16
      ],
      "name": "bone011",
      "rotation": [
        0.73111140727996826,
        -0.083574853837490082,
        -0.67273873090744019,
        -0.076902560889720917
      ],
      "scale": [
        0.99999481439590454,
        1,
        0.99999994039535522
      ],
      "translation": [
        0.00013138800568412989,
        5.9371471405029297,
        120.85350036621094
      ]
    },
    {
      "children": [
        11
      ],
      "name": "bone012",
      "rotation": [
        0.44455763697624207,
        -0.39288830757141113,
        -0.44367939233779907,
        0.67168140411376953
      ],
      "scale": [
        1.0000001192092896,
        0.99999964237213135,
        1.0000005960464478
      ],
      "translation": [
        1.0124820470809937,
        0.083386421203613281,
        49.989940643310547
      ]
    },
    {
      "children": [
        12,
        15
      ],
      "name": "bone013",
      "rotation": [
        0.65439963340759277,
        -0.52923047542572021,
        -0.27020862698554993,
        -0.46761468052864075
      ],
      "scale": [
        1.0000003576278687,
        0.99999994039535522,
        0.99999970197677612
      ],
      "translation": [
        0,
        45.999679565429688,
        0
      ]
    },
    {
      "children": [
        13
      ],
      "name": "bone014",
      "rotation": [
        0.65412533283233643,
        -0.27142849564552307,
        -0.26981210708618164,
        0.65241712331771851
      ],
      "scale": [
        1.0000002384185791,
        1,
        1
      ],
      "translation": [
        -0.296539306640625,
        -0.13298229873180389,
        97.999748229980469
      ]
    },
    {
      "children": [
        14
      ],
      "name": "bone015",
      "rotation": [
        -0.107064388692379,
        0.18719707429409027,
        -0.15766313672065735,
        0.96365803480148315
      ],
      "scale": [
        1,
        1,
        0.99999982118606567
      ],
      "translation": [
        0,
        70.999801635742188,
        0
      ]
    },
    {
      "name": "bone016",
      "rotation": [
        0.97536957263946533,
        0.02912883460521698,
        -0.21858227252960205,
        -0.0052487715147435665
      ],
      "scale": [
        0.99997556209564209,
        1,
        1
      ],
      "translation": [
        0,
        50.000579833984375,
        7.6293899837764911e-06
      ]
    },
    {
      "name": "bone017",
      "rotation": [
        0.70705109834671021,
        0.0088752349838614464,
        0.0088752983137965202,
        0.70705109834671021
      ],
      "scale": [
        1.0000001192092896,
        0.99999994039535522,
        1.0000001192092896
      ],
      "translation": [
        -0.297027587890625,
        -0.1331309974193573,
        97.999893188476562
      ]
    },
    {
      "name": "bone018",
      "rotation": [
        -0.62003469467163086,
        -4.3945096450670462e-08,
        0.78457438945770264,
        -5.9433499899341768e-08
      ],
      "scale": [
        0.99999964237213135,
        1,
        1.0000003576278687
      ],
      "translation": [
        1.0127869844436646,
        0.082936286926269531,
        49.989559173583984
      ]
    },
    {
      "children": [
        18,
        19
      ],
      "name": "bone021",
      "rotation": [
        0.73134303092956543,
        0.083189636468887329,
        0.67257994413375854,
        -0.076505549252033234
      ],
      "scale": [
        0.99999773502349854,
        1.0000001192092896,
        0.99999994039535522
      ],
      "translation": [
        -0.00014930000179447234,
        5.9372520446777344,
        120.85410308837891
      ]
    },
    {
      "name": "bone027",
      "rotation": [
        2.7395986990086385e-07,
        0.62604886293411255,
        -3.9265438545044162e-07,
        0.77978384494781494
      ],
      "scale": [
        1,
        0.99999898672103882,
        1.000001072883606
      ],
      "translation": [
        -0.9918212890625,
        -0.019920829683542252,
        49.990200042724609
      ]
    },
    {
      "children": [
        20
      ],
      "name": "bone022",
      "rotation": [
        0.44538325071334839,
        0.39184528589248657,
        0.44349920749664307,
        0.67186272144317627
      ],
      "scale": [
        1.000001072883606,
        1,
        0.99999898672103882
      ],
      "translation": [
        -0.99169921875,
        -0.01961945928633213,
        49.990528106689453
      ]
    },
    {
      "children": [
        21,
        23
      ],
      "name": "bone023",
      "rotation": [
        0.65478312969207764,
        0.52881091833114624,
        0.26934394240379333,
        -0.46805140376091003
      ],
      "scale": [
        1,
        1.0000001192092896,
        1.0000005960464478
      ],
      "translation": [
        -1.5258799976436421e-05,
        46.000301361083984,
        -3.0517599952872843e-05
      ]
    },
    {
      "children": [
        22
      ],
      "name": "bone024",
      "rotation": [
        0.65423047542572021,
        0.27117300033569336,
        0.26913174986839294,
        0.65269887447357178
      ],
      "scale": [
        1,
        0.99999994039535522,
        1.0000004768371582
      ],
      "translation": [
        0.34124758839607239,
        -0.088092796504497528,
        97.999183654785156
      ]
    },
    {
      "name": "bone025",
      "rotation": [
        -0.69352990388870239,
        -0.39059078693389893,
        -0.13951991498470306,
        0.5890580415725708
      ],
      "scale": [
        1.0000001192092896,
        1,
        0.99999994039535522
      ],
      "translation": [
        0,
        71,
        0
      ]
    },
    {
      "name": "bone026",
      "rotation": [
        0.70707499980926514,
        -0.052033070474863052,
        0.0067095058038830757,
        0.70518976449966431
      ],
      "scale": [
        1.0000003576278687,
        1,
        1.0000001192092896
      ],
      "translation": [
        0.34124758839607239,
        -0.088014602661132812,
        97.99920654296875
      ]
    },
    {
      "children": [
        25
      ],
      "name": "bone019",
      "rotation": [
        0.78834718465805054,
        0,
        0,
        0.61523061990737915
      ],
      "scale": [
        1,
        0.99999988079071045,
        1.0000001192092896
      ],
      "translation": [
        0,
        5.9372830390930176,
        120.85350036621094
      ]
    },
    {
      "name": "bone020",
      "rotation": [
        -0.78834772109985352,
        0,
        0,
        0.61522996425628662
      ],
      "scale": [
        1,
        1.0000002384185791,
        0.99999910593032837
      ],
      "translation": [
        0,
        21.000640869140625,
        0
      ]
    },
    {
      "children": [
        27,
        31
      ],
      "name": "bone001",
      "rotation": [
        0.70772677659988403,
        5.3338347072440229e-08,
        5.343199660501341e-08,
        0.70648634433746338
      ],
      "scale": [
        1,
        1,
        1.0000001192092896
      ],
      "translation": [
        -5.2438099001905769e-11,
        3.0517599952872843e-05,
        -1.4871399798721541e-05
      ]
    },
    {
      "children": [
        28
      ],
      "name": "bone002",
      "rotation": [
        -0.70110899209976196,
        0.71298742294311523,
        7.654512592125684e-05,
        -0.009753890335559845
      ],
      "scale": [
        1,
        1.0000001192092896,
        1
      ],
      "translation": [
        0.00011101499694632366,
        0.073639802634716034,
        48.000171661376953
      ]
    },
    {
      "children": [
        29
      ],
      "name": "bone003",
      "rotation": [
        -0.49292954802513123,
        0.50089335441589355,
        -0.49942934513092041,
        0.50665241479873657
      ],
      "scale": [
        1,
        1,
        1.0000001192092896
      ],
      "translation": [
        0,
        41.000251770019531,
        -1.5258799976436421e-05
      ]
    },
    {
      "children": [
        30
      ],
      "name": "bone004",
      "rotation": [
        0.069738507270812988,
        0.00070771144237369299,
        -0.00080781371798366308,
        0.99756473302841187
      ],
      "scale": [
        0.99999964237213135,
        1.0000003576278687,
        0.99999994039535522
      ],
      "translation": [
        -3.8146999941091053e-06,
        80.000259399414062,
        0
      ]
    },
    {
      "name": "bone005",
      "rotation": [
        -0.7541692852973938,
        0.0049656899645924568,
        0.0053491042926907539,
        0.6566394567489624
      ],
      "scale": [
        0.99999994039535522,
        0.99999994039535522,
        0.99999982118606567
      ],
      "translation": [
        3.8146999941091053e-06,
        87.999542236328125,
        0
      ]
    },
    {
      "children": [
        32
      ],
      "name": "bone006",
      "rotation": [
        0.7005615234375,
        0.71352535486221313,
        8.4672537923324853e-05,
        0.0097518935799598694
      ],
      "scale": [
        1,
        1.0000002384185791,
        0.99999994039535522
      ],
      "translation": [
        -5.5121199693530798e-05,
        0.073641233146190643,
        48.000179290771484
      ]
    },
    {
      "children": [
        33
      ],
      "name": "bone007",
      "rotation": [
        -0.49293071031570435,
        -0.50089371204376221,
        0.49942797422409058,
        0.50665229558944702
      ],
      "scale": [
        1,
        1,
        1.0000001192092896
      ],
      "translation": [
        -2.3841900542720396e-07,
        41.00006103515625,
        0
      ]
    },
    {
      "children": [
        34
      ],
      "name": "bone008",
      "rotation": [
        0.069738417863845825,
        -0.00070774683263152838,
        0.00080768502084538341,
        0.99756485223770142
      ],
      "scale": [
        1,
        1.0000001192092896,
        0.99999988079071045
      ],
      "translation": [
        3.8146999941091053e-06,
        80.000259399414062,
        1.1920899822825959e-07
      ]
    },
    {
      "name": "bone009",
      "rotation": [
        -0.75415998697280884,
        -0.005041840486228466,
        -0.0064319255761802197,
        0.65663987398147583
      ],
      "scale": [
        1,
        0.99999994039535522,
        0.99999982118606567
      ],
      "translation": [
        -3.8146999941091053e-06,
        87.99957275390625,
        -2.8610199933609692e-06
      ]
    },
    {
      "mesh": 0,
      "name": "",
      "skin": 0
    },
    {
      "mesh": 1,
      "name": "",
      "skin": 0
    }
  ],
  "samplers": [
    {
      "magFilter": 9729,
      "minFilter": 9987,
      "wrapS": 10497,
      "wrapT": 10497
    }
  ],
  "scene": 0,
  "scenes": [
    {
      "name": "OSG_Scene",
      "nodes": [
        0
      ]
    }
  ],
  "skins": [
    {
      "inverseBindMatrices": 11,
      "joints": [
        5,
        6,
        7,
        8,
        9,
        10,
        11,
        12,
        13,
        14,
        15,
        16,
        17,
        18,
        19,
        20,
        21,
        22,
        23,
        24,
        25,
        26,
        27,
        28,
        29,
        30,
        31,
        32,
        33,
        34
      ],
      "skeleton": 5
    }
  ],
  "textures": [
    {
      "sampler": 0,
      "source": 0
    },
    {
      "sampler": 0,
      "source": 1
    }
  ]
}

